<svg xmlns="http://www.w3.org/2000/svg" version="1.1" xmlns:xlink="http://www.w3.org/1999/xlink" width="auto" height="20" x="0" y="0" viewBox="0 0 512 512" style="enable-background:new 0 0 512 512" xml:space="preserve" class=""><g><path fill="#08355a" d="M315.39 292.61 26.497 3.82C15.914-4.586 0 3.434 0 16v394.668c0 8.832 7.168 16 16 16 4.16 0 8.148-1.602 10.434-3.906l80.043-69.739 65.277 152.512a10.7 10.7 0 0 0 5.824 5.719c1.281.488 2.625.746 3.969.746 1.43 0 2.86-.297 4.203-.875l68.691-29.441c5.422-2.301 7.938-8.575 5.614-13.993L196.863 320H304c8.832 0 16-7.168 16-16 0-2.582-.66-6.465-4.61-11.39zm0 0" opacity="1" data-original="#607d8b" class=""></path><path d="M180.777 512c-2.023 0-4.03-.383-5.949-1.152a15.934 15.934 0 0 1-8.789-8.641l-59.863-141.844-71.145 62.89c-2.988 3.071-8.343 5.27-13.89 5.27C9.492 428.523 0 419.008 0 407.297V21.227C0 9.516 9.492 0 21.14 0c4.93 0 9.708 1.727 13.762 5.012L313.961 287.98c4.355 5.352 6.039 10.067 6.039 14.973 0 11.692-9.492 21.227-21.14 21.227h-94.786l57.688 136.812c3.41 8.086-.32 17.387-8.364 20.887l-66.242 28.797a16.118 16.118 0 0 1-6.379 1.324zm-68.5-194.367c1.196 0 2.368.129 3.563.406 5.012 1.149 9.195 4.629 11.18 9.387l62.226 147.453 36.887-16.043-60.906-144.445a15.978 15.978 0 0 1 1.406-15.063 16.043 16.043 0 0 1 13.336-7.148H273.3L32 47.508v335.765l69.676-61.628a16.018 16.018 0 0 1 10.601-4.012zm-97.984 81.3c-.45.34-.852.704-1.238 1.087zm275.71-89.812h.216zm0 0" fill="#ffffff" opacity="1" data-original="#000000" class=""></path></g></svg>