<svg xmlns="http://www.w3.org/2000/svg" xmlns:xlink="http://www.w3.org/1999/xlink" width="167.261" height="85.495" viewBox="0 0 167.261 85.495">
  <defs>
    <clipPath id="clip-path">
      <path id="path-1" d="M79.052,22.45H72.166V5.292H61.449a15.693,15.693,0,0,1,.539,4.361V12.1c0,3.275-.824,5.827-2.449,7.587-1.691,1.83-4.214,2.759-7.5,2.759H32.522V0H93.362l9.263,16.7L111.349,0h7.421L106.91,22.448H98.266L88.694,5.29H79.052V22.449ZM47.293,17.162h3.749c2.677,0,3.978-1.152,3.978-3.523V8.734c0-2.188-1.45-3.442-3.978-3.442H39.487V17.161h7.807ZM30.308,22.448H22.96a9.14,9.14,0,0,1-5.137-1.57,10.419,10.419,0,0,1-3.589-4.329l-3.98-7.891c-.009-.022-.967-2.22-2.832-2.22H7.195V22.447H0V0H7.422c3.667,0,6.957,2.206,8.8,5.9l3.9,7.889c.306.55,1.235,2.224,2.832,2.224h.23V0h7.117V22.447Z" transform="translate(0.439 0.281)" fill="none"/>
    </clipPath>
    <clipPath id="clip-path-2">
      <path id="path-3" d="M4.131,8.5A4.183,4.183,0,0,1,0,4.291,4.251,4.251,0,0,1,4.131,0,4.266,4.266,0,0,1,8.34,4.291,4.2,4.2,0,0,1,4.131,8.5Z" transform="translate(0.223 0.018)" fill="none"/>
    </clipPath>
    <clipPath id="clip-path-3">
      <path id="path-15" d="M57.218,41.921H50.23V.6h6.889V4.636h.347a6.492,6.492,0,0,1,2.663-3.2A9.206,9.206,0,0,1,65.1.149c6.113,0,9.762,4.425,9.762,11.836V15.19c0,7.426-3.678,11.86-9.838,11.86-3.615,0-6.333-1.591-7.458-4.365h-.346V41.92ZM62.47,5.845c-3.289,0-5.252,2.387-5.252,6.386v2.984c0,3.73,2.081,6.14,5.3,6.14,3.291,0,5.179-2.445,5.179-6.707v-2.1a7.845,7.845,0,0,0-1.416-5.028A4.654,4.654,0,0,0,62.47,5.845ZM86.458,27.2a13.419,13.419,0,0,1-8-2.164A6.821,6.821,0,0,1,75.6,19.357h6.765c.241,1.9,1.848,2.984,4.41,2.984a5.465,5.465,0,0,0,3.333-.87,2.533,2.533,0,0,0,1.029-2.089c0-2.137-2.522-2.587-5.442-3.109-.35-.063-.712-.127-1.075-.2a14.053,14.053,0,0,1-6.006-2.315,6.471,6.471,0,0,1-2.494-5.478,7.221,7.221,0,0,1,3.24-6.371A13.5,13.5,0,0,1,86.879,0a12.429,12.429,0,0,1,7.344,2,6.88,6.88,0,0,1,2.865,5.792H90.943c-.177-1.485-1.541-2.984-4.189-2.984-2.423,0-3.989,1.142-3.989,2.91,0,2.312,3.326,2.827,6,3.241.3.047.588.091.866.137a12.862,12.862,0,0,1,5.96,2.253,6.221,6.221,0,0,1,2.316,5.194C97.906,23.963,93.626,27.2,86.458,27.2Zm-48.951,0a12.416,12.416,0,0,1-8.856-3.119,10.262,10.262,0,0,1-2.466-3.83,15.092,15.092,0,0,1-.87-5.282V12.181a12.2,12.2,0,0,1,3.451-9.1A10.671,10.671,0,0,1,32.529.776,13.523,13.523,0,0,1,37.16,0a11.6,11.6,0,0,1,8.488,3.261,12.355,12.355,0,0,1,3.283,8.92V15.14H32.155v1.209a5.437,5.437,0,0,0,1.456,3.912,5.272,5.272,0,0,0,3.871,1.489c2.493,0,4.429-1.167,4.708-2.837h6.517C48.49,22.244,45.327,27.2,37.507,27.2Zm-.3-21.92c-3.024,0-5.055,2.19-5.055,5.449v.222h10.06v-.222a5.719,5.719,0,0,0-1.369-3.945A4.772,4.772,0,0,0,37.21,5.279ZM12.191,27.2A12.413,12.413,0,0,1,3.336,24.08,10.263,10.263,0,0,1,.87,20.249,15.1,15.1,0,0,1,0,14.967V12.181a12.2,12.2,0,0,1,3.45-9.1A10.67,10.67,0,0,1,7.213.776,13.52,13.52,0,0,1,11.844,0a11.594,11.594,0,0,1,8.487,3.261,12.356,12.356,0,0,1,3.283,8.92V15.14H6.839v1.209a5.437,5.437,0,0,0,1.456,3.912,5.272,5.272,0,0,0,3.871,1.489c2.493,0,4.429-1.167,4.708-2.837h6.517C23.174,22.244,20.011,27.2,12.191,27.2Zm-.3-21.92c-3.023,0-5.054,2.19-5.054,5.449v.222H16.9v-.222a5.718,5.718,0,0,0-1.369-3.945A4.772,4.772,0,0,0,11.894,5.279Z" transform="translate(0.135 0.326)" fill="none"/>
    </clipPath>
  </defs>
  <g id="news_beep_logo_2_1_" data-name="news_beep_logo 2 (1)" transform="translate(-0.388 -0.055)">
    <g id="Group-6" transform="translate(0 2.411)">
      <g id="Fill-4_Clipped" data-name="Fill-4 Clipped">
        <path id="path-1-2" data-name="path-1" d="M79.052,22.45H72.166V5.292H61.449a15.693,15.693,0,0,1,.539,4.361V12.1c0,3.275-.824,5.827-2.449,7.587-1.691,1.83-4.214,2.759-7.5,2.759H32.522V0H93.362l9.263,16.7L111.349,0h7.421L106.91,22.448H98.266L88.694,5.29H79.052V22.449ZM47.293,17.162h3.749c2.677,0,3.978-1.152,3.978-3.523V8.734c0-2.188-1.45-3.442-3.978-3.442H39.487V17.161h7.807ZM30.308,22.448H22.96a9.14,9.14,0,0,1-5.137-1.57,10.419,10.419,0,0,1-3.589-4.329l-3.98-7.891c-.009-.022-.967-2.22-2.832-2.22H7.195V22.447H0V0H7.422c3.667,0,6.957,2.206,8.8,5.9l3.9,7.889c.306.55,1.235,2.224,2.832,2.224h.23V0h7.117V22.447Z" transform="translate(0.439 0.281)" fill="none"/>
        <g id="Fill-4_Clipped-2" data-name="Fill-4 Clipped" clip-path="url(#clip-path)">
          <path id="Fill-4" fill="#ffffff" d="M0,30.485H126.847V0H0Z" transform="translate(-3.6 -3.737)"/>
        </g>
      </g>
    </g>
    <g id="Group-9" transform="translate(27.462 9.645)">
      <g id="Fill-7_Clipped" data-name="Fill-7 Clipped">
        <path id="path-3-2" data-name="path-3" d="M4.131,8.5A4.183,4.183,0,0,1,0,4.291,4.251,4.251,0,0,1,4.131,0,4.266,4.266,0,0,1,8.34,4.291,4.2,4.2,0,0,1,4.131,8.5Z" transform="translate(0.223 0.018)" fill="none"/>
        <g id="Fill-7_Clipped-2" data-name="Fill-7 Clipped" clip-path="url(#clip-path-2)">
          <path id="Fill-7" d="M0,16.542H16.418V0H0Z" transform="translate(-3.816 -4.001)" fill="#ee1c23"/>
        </g>
      </g>
    </g>
    <g id="Fill-31_Clipped" data-name="Fill-31 Clipped" transform="translate(22.615 28.935)">
      <path id="path-15-2" data-name="path-15" d="M57.218,41.921H50.23V.6h6.889V4.636h.347a6.492,6.492,0,0,1,2.663-3.2A9.206,9.206,0,0,1,65.1.149c6.113,0,9.762,4.425,9.762,11.836V15.19c0,7.426-3.678,11.86-9.838,11.86-3.615,0-6.333-1.591-7.458-4.365h-.346V41.92ZM62.47,5.845c-3.289,0-5.252,2.387-5.252,6.386v2.984c0,3.73,2.081,6.14,5.3,6.14,3.291,0,5.179-2.445,5.179-6.707v-2.1a7.845,7.845,0,0,0-1.416-5.028A4.654,4.654,0,0,0,62.47,5.845ZM86.458,27.2a13.419,13.419,0,0,1-8-2.164A6.821,6.821,0,0,1,75.6,19.357h6.765c.241,1.9,1.848,2.984,4.41,2.984a5.465,5.465,0,0,0,3.333-.87,2.533,2.533,0,0,0,1.029-2.089c0-2.137-2.522-2.587-5.442-3.109-.35-.063-.712-.127-1.075-.2a14.053,14.053,0,0,1-6.006-2.315,6.471,6.471,0,0,1-2.494-5.478,7.221,7.221,0,0,1,3.24-6.371A13.5,13.5,0,0,1,86.879,0a12.429,12.429,0,0,1,7.344,2,6.88,6.88,0,0,1,2.865,5.792H90.943c-.177-1.485-1.541-2.984-4.189-2.984-2.423,0-3.989,1.142-3.989,2.91,0,2.312,3.326,2.827,6,3.241.3.047.588.091.866.137a12.862,12.862,0,0,1,5.96,2.253,6.221,6.221,0,0,1,2.316,5.194C97.906,23.963,93.626,27.2,86.458,27.2Zm-48.951,0a12.416,12.416,0,0,1-8.856-3.119,10.262,10.262,0,0,1-2.466-3.83,15.092,15.092,0,0,1-.87-5.282V12.181a12.2,12.2,0,0,1,3.451-9.1A10.671,10.671,0,0,1,32.529.776,13.523,13.523,0,0,1,37.16,0a11.6,11.6,0,0,1,8.488,3.261,12.355,12.355,0,0,1,3.283,8.92V15.14H32.155v1.209a5.437,5.437,0,0,0,1.456,3.912,5.272,5.272,0,0,0,3.871,1.489c2.493,0,4.429-1.167,4.708-2.837h6.517C48.49,22.244,45.327,27.2,37.507,27.2Zm-.3-21.92c-3.024,0-5.055,2.19-5.055,5.449v.222h10.06v-.222a5.719,5.719,0,0,0-1.369-3.945A4.772,4.772,0,0,0,37.21,5.279ZM12.191,27.2A12.413,12.413,0,0,1,3.336,24.08,10.263,10.263,0,0,1,.87,20.249,15.1,15.1,0,0,1,0,14.967V12.181a12.2,12.2,0,0,1,3.45-9.1A10.67,10.67,0,0,1,7.213.776,13.52,13.52,0,0,1,11.844,0a11.594,11.594,0,0,1,8.487,3.261,12.356,12.356,0,0,1,3.283,8.92V15.14H6.839v1.209a5.437,5.437,0,0,0,1.456,3.912,5.272,5.272,0,0,0,3.871,1.489c2.493,0,4.429-1.167,4.708-2.837h6.517C23.174,22.244,20.011,27.2,12.191,27.2Zm-.3-21.92c-3.023,0-5.054,2.19-5.054,5.449v.222H16.9v-.222a5.718,5.718,0,0,0-1.369-3.945A4.772,4.772,0,0,0,11.894,5.279Z" transform="translate(0.135 0.326)" fill="none"/>
      <g id="Fill-31_Clipped-2" data-name="Fill-31 Clipped" clip-path="url(#clip-path-3)">
        <path id="Fill-31" fill="#ffffff" d="M0,49.958H105.982V0H0Z" transform="translate(-3.904 -3.692)"/>
      </g>
    </g>
    <path id="Stroke-37" d="M11.213,26.124H0V0H11.176a9.058,9.058,0,0,1,5.685,1.684,5.8,5.8,0,0,1,2.181,4.727,5.735,5.735,0,0,1-1.356,3.923,5.873,5.873,0,0,1-3.2,1.8v.249a6.7,6.7,0,0,1,4.116,1.8,6.219,6.219,0,0,1,1.751,4.555,6.63,6.63,0,0,1-2.65,5.5A10.642,10.642,0,0,1,11.213,26.124ZM5.52,14.583v7.349H9.232c3.625,0,5.463-1.217,5.463-3.617,0-2.372-1.655-3.732-4.54-3.732Zm0-10.392h0v6.543H8.829c3.107,0,4.749-1.151,4.749-3.33a2.978,2.978,0,0,0-1.043-2.4,4.184,4.184,0,0,0-2.688-.818Z" transform="translate(0.792 29.808)" fill="#ffffff" stroke-miterlimit="10" stroke-width="0.81"/>
    <path id="Path" d="M3.009,0,0,5.3A17.993,17.993,0,0,1,6.989,19.708,18.466,18.466,0,0,1,.175,33.891l3.046,5.366a24.105,24.105,0,0,0,6.941-8.033,24,24,0,0,0,2.945-11.571A23.741,23.741,0,0,0,10.191,8.171,24.786,24.786,0,0,0,3.009,0Z" transform="translate(127.832 23.135)" fill="#f8e71c"/>
    <path id="Path-2" data-name="Path" d="M3.013,0,0,5.308a30.88,30.88,0,0,1,10.149,11.2,31.874,31.874,0,0,1,3.829,15.159A30.652,30.652,0,0,1,10.149,46.7,32.062,32.062,0,0,1,.242,57.843L3.227,63.1A37.882,37.882,0,0,0,15.5,49.563a37.25,37.25,0,0,0,4.534-17.9,37.222,37.222,0,0,0-4.563-17.988A39.061,39.061,0,0,0,3.013,0Z" transform="translate(134.595 11.212)" fill="#b8e986"/>
    <path id="Path-3-3" data-name="Path" d="M20.493,18.712A51.166,51.166,0,0,0,3.677.371,3.1,3.1,0,0,0,2.909,0L0,5.125a4.247,4.247,0,0,0,.332.327A44.339,44.339,0,0,1,15.139,21.57,44.085,44.085,0,0,1,20.5,42.764a44.185,44.185,0,0,1-5.361,21.251A44.362,44.362,0,0,1,.327,80.194c-.043.028-.075.064-.116.094L3.168,85.5a3,3,0,0,0,.474-.25,50.7,50.7,0,0,0,16.879-18.4,49.513,49.513,0,0,0,6.095-24.026A50.618,50.618,0,0,0,20.493,18.712Z" transform="translate(141.032 0.055)" fill="#5cd0ff"/>
  </g>
</svg>
